<svg width="400" height="467" viewBox="0 0 400 467" fill="none" xmlns="http://www.w3.org/2000/svg">
<path d="M76.6087 448.856L58.7344 430.878L97.7018 391.703C139.081 350.101 149.108 342.13 168.637 335.319C183.28 330.211 213.032 330.077 228.675 335.048C250.164 341.877 256.819 347.068 300.125 390.782L340.385 431.42L305.154 466.855L265.355 427.181C220.703 382.669 219.165 381.611 199.046 381.648C179.102 381.686 174.997 384.554 131.951 428.549L94.4846 466.84L76.6087 448.856ZM177.992 198.546C160.704 194.822 143.115 184.956 129.602 171.403C76.6692 118.311 98.2083 27.707 169.295 4.4475C185.416 -0.828032 210.803 -1.50987 225.558 2.93642C252.562 11.0738 276.975 31.5229 288.337 55.5254C291.799 62.8374 295.565 72.6908 296.706 77.422C299.59 89.384 299.174 113.525 295.873 125.782C281.795 178.046 230.324 209.821 177.995 198.55L177.992 198.546ZM221.193 145.364C257.917 127.366 257.986 73.9792 221.31 55.5954C213.369 51.6155 209.961 50.8301 200.633 50.8301C186.098 50.8301 176.69 54.1887 167.164 62.7784C155.65 73.1613 150.702 84.3787 150.704 100.097C150.705 110.347 151.441 114.165 154.778 121.212C166.932 146.879 196.304 157.561 221.193 145.364Z" fill="#3EA59A"/>
<path d="M321 368.087C284.453 330.174 279.153 324.024 274.031 313.619C265.581 296.439 263.001 283.533 263.871 262.788C264.695 243.14 269.124 228.538 278.873 213.332C281.973 208.496 302.081 186.52 323.559 164.496L362.609 124.452L399.117 161.163L361.634 198.682C317.976 242.381 314.208 247.843 314.249 267.36C314.293 287.186 317.262 291.539 360.228 334.777C380.766 355.444 397.569 373.052 397.569 373.903C397.569 374.754 389.611 383.411 379.884 393.139L362.198 410.827L321 368.087ZM17.4926 391.48L0 373.935L37.8902 335.565C80.7317 292.183 82.9466 289.016 83.8461 269.823C84.2813 260.553 83.6658 256.124 80.9112 248.708C77.7168 240.108 74.1979 236.058 38.7916 200.224L0.156817 161.124L35.0022 124.113L76.4302 166.078C115.923 206.085 118.157 208.666 124.253 221.339C140.9 255.946 138.717 293.695 118.309 324.128C113.812 330.834 37.8339 409.021 35.8156 409.021C35.3592 409.021 27.1135 401.129 17.4926 391.48Z" fill="#1E3255"/>
<circle cx="271" cy="334" r="96" fill="white" stroke="#1E3255" stroke-width="10"/>
<path d="M219.741 287.382L220.712 287.613L219.741 287.382C219.206 289.63 219.103 291.043 219.119 295.165C219.129 297.902 219.303 301.2 219.52 302.499C221.321 313.256 226.118 324.549 232.523 333.096C233.067 333.823 233.415 334.351 233.626 334.754C233.836 335.158 233.871 335.367 233.871 335.469C233.875 336.53 234.156 337.448 234.872 338.483C235.552 339.465 236.637 340.569 238.238 342.042C241.974 345.48 245.118 347.679 248.846 349.434C250.175 350.06 251.941 350.735 253.505 351.253C254.289 351.512 255.035 351.736 255.661 351.897C256.25 352.047 256.838 352.17 257.25 352.169C257.358 352.168 257.432 352.167 257.489 352.165C257.512 352.269 257.538 352.416 257.562 352.619C257.717 353.915 257.727 356.578 257.747 362.112C257.749 362.636 257.751 363.185 257.753 363.762C257.802 376.329 258.015 379.939 259.033 383.717C262.938 398.202 275.585 408.945 290.984 410.931C311.372 413.56 330.143 400.524 333.899 381.003C334.3 378.919 334.422 375.806 334.527 366.231L334.65 354.897L335.489 354.692C339.439 353.726 341.912 352.843 343.133 351.997C343.691 351.61 344.387 350.95 344.239 350.019C344.169 349.575 343.921 349.242 343.67 349.01C343.42 348.779 343.116 348.598 342.806 348.453C341.608 347.89 339.595 347.517 337.326 347.275C335.012 347.029 332.295 346.909 329.597 346.91C326.899 346.912 324.199 347.036 321.921 347.286C319.694 347.529 317.718 347.907 316.579 348.487C316.283 348.638 315.983 348.831 315.746 349.087C315.5 349.352 315.288 349.725 315.284 350.192C315.281 350.65 315.479 351.03 315.713 351.314C315.943 351.595 316.25 351.837 316.589 352.051C317.904 352.881 320.483 353.763 324.585 354.734L325.413 354.93L325.447 366.664L325.483 379.047L324.772 381.57C320.667 396.143 305.777 405.134 290.448 402.216C279.347 400.103 270.75 392.386 267.674 381.813L266.934 379.27L266.785 365.413L266.643 352.236L266.656 352.233C274.286 350.59 280.087 347.459 286.084 341.771C288.977 339.027 290.36 337.219 290.368 335.163C290.368 335.164 290.368 335.149 290.374 335.114C290.381 335.08 290.392 335.032 290.413 334.97C290.454 334.843 290.524 334.676 290.631 334.467C290.848 334.045 291.188 333.506 291.668 332.843C298.14 323.896 302.551 313.194 304.301 302.202C304.628 300.151 304.737 297.089 304.671 294.177C304.605 291.278 304.362 288.397 303.94 286.733C302.83 282.36 300.799 279.079 297.712 276.888C294.529 274.63 291.747 273.601 284.818 271.984C283.056 271.572 282.2 271.355 281.666 271.137C281.233 270.96 281.048 270.802 280.658 270.374C278.632 268.153 275.764 267.755 273.472 268.66C271.173 269.567 269.409 271.807 269.648 274.788C270 279.195 274.43 281.634 278.503 279.867L279.437 279.462L283.267 280.367C288.642 281.636 291.595 282.779 293.323 284.527C295.001 286.224 295.674 288.654 295.934 293.037C296.542 303.302 292.336 316.543 285.085 326.918C284.208 328.173 283.757 328.776 283.418 329.109C283.268 329.256 283.164 329.324 283.078 329.367C282.984 329.414 282.864 329.454 282.641 329.504C281.441 329.771 280.378 330.637 278.343 332.582C275.13 335.654 273.025 337.229 270.326 338.623C267.093 340.293 263.898 340.969 260.693 340.691C257.482 340.412 254.197 339.168 250.802 336.896C249.83 336.246 247.733 334.505 246.169 333.034C243.986 330.981 242.884 330.1 241.649 329.791C241.212 329.681 241.039 329.601 240.784 329.359C240.449 329.042 240.017 328.477 239.176 327.295C235.855 322.631 232.57 316.178 230.784 310.812C228.876 305.082 228.221 301.769 227.983 296.743C227.675 290.233 228.586 286.746 230.64 284.641C232.326 282.911 234.664 281.88 241.312 280.316L244.374 279.595L245.316 279.995C250.763 282.308 256.208 276.969 253.456 271.609C251.439 267.681 246.123 267.268 243.077 270.502C242.67 270.934 242.454 271.107 242.114 271.26C241.709 271.441 241.108 271.602 239.879 271.876C233.452 273.308 228.928 274.931 225.752 277.35C222.523 279.81 220.779 283.018 219.741 287.382Z" fill="#1E3255" stroke="#1E3255" stroke-width="2"/>
</svg>
