<svg width="500" height="500" version="1.1" viewBox="0 0 132.29 132.29" xmlns="http://www.w3.org/2000/svg">
    <g transform="translate(2.1774 -.938)">
        <path d="m30.528 120.75-4.6169-4.6436 10.065-10.119c10.688-10.746 13.278-12.805 18.322-14.564 3.7822-1.3194 11.467-1.354 15.508-0.07 5.5505 1.7639 7.2695 3.1047 18.455 14.396l10.399 10.497-9.1 9.1527-10.28-10.248c-11.533-11.497-11.931-11.771-17.127-11.761-5.1515 0.01-6.2118 0.75061-17.33 12.114l-9.6774 9.8904zm26.187-64.654c-4.4654-0.96189-9.0086-3.5102-12.499-7.0109-13.672-13.713-8.1089-37.116 10.253-43.124 4.164-1.3626 10.721-1.5388 14.533-0.39031 6.975 2.1019 13.281 7.3838 16.216 13.584 0.89422 1.8887 1.867 4.4338 2.1617 5.6558 0.74493 3.0897 0.63747 9.3253-0.21516 12.491-3.6363 13.5-16.931 21.707-30.447 18.796zm11.159-13.737c9.4857-4.6488 9.5035-18.438 0.03026-23.187-2.0511-1.028-2.9314-1.2309-5.3408-1.2309-3.7543 0-6.1844 0.86751-8.6449 3.0862-2.974 2.6819-4.2521 5.5793-4.2516 9.6392 2.54e-4 2.6475 0.19037 3.6337 1.0523 5.4539 3.1393 6.6297 10.726 9.3888 17.155 6.2384z" fill="#3ea59a" stroke-width=".2583"/>
        <path d="m93.654 99.891c-9.4399-9.7928-10.809-11.381-12.132-14.069-2.1826-4.4375-2.849-7.7711-2.6243-13.129 0.21283-5.075 1.3568-8.8466 3.875-12.774 0.80071-1.2491 5.9945-6.9254 11.542-12.614l10.086-10.343 9.4299 9.4823-9.6817 9.691c-11.277 11.287-12.25 12.698-12.239 17.739 0.01132 5.121 0.77824 6.2453 11.876 17.414 5.3049 5.3382 9.645 9.8863 9.645 10.106s-2.0555 2.4559-4.568 4.9686l-4.5682 4.5687zm-78.395 6.0423-4.5183-4.5318 9.7869-9.9108c11.066-11.205 11.638-12.023 11.87-16.981 0.11241-2.3944-0.046566-3.5384-0.75808-5.4539-0.8251-2.2213-1.734-3.2674-10.879-12.523l-9.9792-10.099 9.0004-9.5598 10.701 10.839c10.201 10.334 10.778 11 12.352 14.274 4.2999 8.9389 3.736 18.689-1.5353 26.55-1.1616 1.7321-20.786 21.928-21.308 21.928-0.11789 0-2.2477-2.0385-4.7328-4.5308z" fill="#1e3255" stroke-width=".2583"/>
        <circle cx="84.872" cy="97.027" r="30.737" fill="#fff" stroke="#1e3255" stroke-width="3.175"/>
        <path d="m71.816 94.831 0.47836 0.91772c0.0029 0.0072 0.0059 0.01601 0.0088 0.02608 0.01084 0.031 0.02685 0.07491 0.0491 0.12966 0.04442 0.10978 0.11417 0.26346 0.21672 0.44659 0.20482 0.36652 0.54165 0.85238 1.0724 1.3406 1.1814 1.0872 2.1736 1.7807 3.3493 2.3342 0.4187 0.19708 0.9761 0.41043 1.4707 0.57393 0.24796 0.0821 0.48301 0.15292 0.6801 0.20329 0.18726 0.0477 0.36677 0.0849 0.48895 0.0844 0.03768-2.5e-4 0.06326-7.7e-4 0.08317-2e-3 0.01445-2.5e-4 0.02607-7.7e-4 0.03749-5.2e-4 0.01162 0.0361 0.02509 0.0968 0.0369 0.19657 0.04959 0.41482 0.05272 1.2626 0.05916 3.012 5.18e-4 0.16764 9.77e-4 0.3438 2e-3 0.52848 0.01552 3.9873 0.08347 5.1238 0.40398 6.313 1.2316 4.5693 5.222 7.9599 10.083 8.5868 6.4362 0.83017 12.359-3.2853 13.544-9.4433 0.12579-0.65453 0.1648-1.635 0.19785-4.6741l0.0398-3.6396 0.31048-0.0759c1.2535-0.3066 2.0274-0.58454 2.4045-0.84592 0.17486-0.12141 0.36703-0.31125 0.32596-0.56955-0.0193-0.12347-0.0886-0.21826-0.16221-0.28619-0.0731-0.06767-0.16402-0.12166-0.25906-0.16634-0.37014-0.17409-0.99936-0.29188-1.7192-0.36833-0.73097-0.07775-1.5903-0.11598-2.4445-0.11546-0.85418 5.16e-4 -1.7081 0.04004-2.428 0.11882-0.70643 0.07723-1.323 0.1963-1.6738 0.37479-0.0904 0.04623-0.17874 0.10358-0.24745 0.17796-0.07107 0.0765-0.12966 0.18132-0.1307 0.31099-9.77e-4 0.12708 0.05398 0.23479 0.12218 0.31796 0.06765 0.0824 0.15937 0.15497 0.26397 0.22109 0.40785 0.25753 1.2166 0.53546 2.5179 0.8436l0.30788 0.0728 0.0108 3.7675 0.0113 3.9349-0.22781 0.80795c-1.3103 4.6519-6.0625 7.5198-10.952 6.5891-3.5415-0.67416-6.2859-3.137-7.2679-6.5116l-0.23686-0.81416-0.04725-4.4024-0.04549-4.2268 0.05116-0.0108c2.4083-0.51865 4.2384-1.5059 6.133-3.3028 0.48819-0.46312 0.81803-0.95234 1.026-1.3256 0.10435-0.18701 0.17848-0.34586 0.22704-0.45899 0.02431-0.05683 0.04207-0.10203 0.05428-0.13406 0.0059-0.01601 0.01064-0.02841 0.01367-0.03745l0.0039-0.01085 9.76e-4 -0.0031 5.17e-4 -0.0013v-5.17e-4l-0.24487-0.08214 0.24487 0.08214 7.72e-4 -0.0019v-5.17e-4l9.76e-4 -0.0028c9.76e-4 -0.0028 0.0029-0.0075 0.0049-0.01343 0.0049-0.0124 0.01084-0.031 0.02011-0.05527 0.01806-0.04804 0.04569-0.11752 0.08269-0.19992 0.07439-0.16608 0.18417-0.37918 0.32778-0.57755 2.0467-2.8296 3.4423-6.2146 3.9958-9.6913 0.1028-0.64522 0.13742-1.6125 0.11649-2.5347-0.02089-0.9185-0.0979-1.8264-0.23015-2.3474-0.34921-1.3762-0.98695-2.4034-1.9519-3.0882-0.99961-0.70954 0.11471-0.0767-2.0805-0.58916-0.55688-0.12992-0.83378-0.19992-1.0084-0.27121-0.14878-0.0607-0.21439-0.11778-0.34095-0.25675-0.62482-0.685-1.5077-0.80718-2.2139-0.52847-0.70773 0.27922-1.2489 0.96732-1.1758 1.8838 0.10823 1.354 1.4687 2.1069 2.7263 1.5617l0.31408-0.13638 1.2336 0.29136c1.7032 0.40217 0.66818-0.1896 1.2297 0.37813 0.54836 0.55456 0.76224 1.3447 0.84463 2.7364 0.19398 3.2713-1.1455 7.4828-3.4508 10.782-0.25958 0.37117-0.48456 0.58995-0.63773 0.71316-0.07644 0.06147-0.13535 0.0997-0.17229 0.12088-0.01835 0.01085-0.03124 0.01731-0.03798 0.02067-2e-3 7.75e-4 -0.0029 0.0016-0.0039 0.0019-5.18e-4 2.58e-4 -7.71e-4 5.17e-4 -9.76e-4 5.17e-4 -5.18e-4 2.58e-4 -7.72e-4 2.58e-4 -7.72e-4 5.16e-4l5.18e-4 -2.58e-4 -0.0049 0.0019-0.0078 0.0036 0.11132 0.23298c-0.11132-0.23298-0.11158-0.23298-0.11158-0.23298v2.58e-4h-2.54e-4l-7.81e-4 5.17e-4 -2e-3 7.75e-4 -0.0068 0.0033c-0.0029 0.0013-0.0059 0.0031-0.01005 0.0049-0.0039 0.0019-0.0078 0.0039-0.01211 0.0061-0.01884 0.0098-0.04549 0.02376-0.07908 0.04262-0.06687 0.03745-0.16195 0.09324-0.27792 0.16944-0.23169 0.1524-0.54733 0.38589-0.89087 0.71445-1.0216 0.97636-1.6936 1.4798-2.5561 1.9251-1.0337 0.53416-2.0584 0.75138-3.0869 0.66227-1.0301-0.08963-2.0813-0.48844-3.1644-1.2132-0.31202-0.20896-0.97971-0.76352-1.4764-1.2305-0.36575-0.34379-0.70102-0.59098-0.94639-0.75268-0.12269-0.08084-0.22317-0.14077-0.29394-0.18081-0.03534-0.01989-0.06326-0.03487-0.08288-0.04546-0.0098-0.0052-0.01757-0.0091-0.02323-0.01188l-0.0068-0.0033-2e-3 -0.0011-7.71e-4 -2.58e-4 -2.54e-4 -2.59e-4s-2.64e-4 0-0.11392 0.23195l0.11365-0.23195-0.0078-0.0039-0.0059-0.0023-2.54e-4 -2.59e-4c-9.76e-4 -5.17e-4 -0.0029-0.0016-0.0068-0.0033-0.0078-0.0039-0.02226-0.01111-0.04188-0.02221-0.03924-0.02247-0.10099-0.06122-0.179-0.12192-0.15601-0.1214-0.38022-0.33191-0.62714-0.67906-1.0564-1.4837-2.1007-3.5353-2.6692-5.2426-0.60622-1.8212-0.81544-2.8772-0.89087-4.4773-0.0979-2.0671 0.18933-3.1954 0.85884-3.8817 0.54836-0.56231-0.53445 0.35957 1.5727-0.13636l0.9898-0.23272 0.31641 0.13432c1.682 0.71419 3.3509-0.93297 2.506-2.5783-0.61836-1.2047-2.2544-1.3377-3.1962-0.33759-0.13122 0.13922-0.20612 0.20044-0.32417 0.25365-0.13483 0.06019-0.33139 0.11236-0.72012 0.19889-2.0361 0.45382-1.62-0.28492-2.6165 0.47395-1.0105 0.76946-1.5578 1.7732-1.8848 3.1481l0.25132 0.05992-0.25132-0.05992c-0.16789 0.70592-0.20044 1.1484-0.19553 2.4543 0.0029 0.86762 0.05838 1.9093 0.12656 2.3161 0.288 1.7218 1.3202 4.1433 2.265 6.1126 0.47475 0.98953 0.93168 1.8732 1.27 2.5093 0.16918 0.31822 0.30867 0.57471 0.40604 0.7519 0.04852 0.08859 0.08679 0.1573 0.11288 0.2038 0.01289 0.02351 0.02304 0.04132 0.02968 0.0532l0.0078 0.01369z" fill="#1e3255" stroke="#1e3255" stroke-width="1.9525"/>
    </g>
</svg>