<svg width="500" height="500" version="1.1" viewBox="0 0 132.29 132.29" xmlns="http://www.w3.org/2000/svg">
    <path d="m33.728 122.95-4.7128-4.7401 10.274-10.329c10.91-10.969 13.554-13.071 18.703-14.866 3.8608-1.3468 11.705-1.3821 15.83-0.07145 5.6659 1.8006 7.4205 3.1692 18.839 14.695l10.615 10.715-9.2891 9.3429-10.494-10.461c-11.773-11.736-12.179-12.015-17.483-12.005-5.2585 0.0101-6.3408 0.76621-17.691 12.366l-9.8785 10.096zm26.731-65.998c-4.5582-0.98188-9.1958-3.5832-12.759-7.1566-13.956-13.998-8.2774-37.887 10.466-44.02 4.2505-1.391 10.944-1.5707 14.835-0.39842 7.12 2.1455 13.557 7.5372 16.553 13.866 0.91281 1.9279 1.9058 4.5259 2.2066 5.7733 0.76041 3.1539 0.65072 9.519-0.21963 12.751-3.7119 13.78-17.283 22.158-31.08 19.186zm11.391-14.022c9.6828-4.7454 9.701-18.822 0.03085-23.669-2.0938-1.0494-2.9923-1.2564-5.4518-1.2564-3.8323 0-6.3129 0.88554-8.8246 3.1503-3.0358 2.7376-4.3404 5.6952-4.3399 9.8396 2.64e-4 2.7026 0.19432 3.7092 1.0742 5.5673 3.2046 6.7675 10.949 9.5839 17.511 6.368z" fill="#3ea59a" stroke-width=".26366"/>
    <path d="m98.166 92.675c-9.6361-9.9963-11.034-11.618-12.384-14.361-2.228-4.5297-2.9082-7.9326-2.6788-13.402 0.21725-5.1805 1.385-9.0305 3.9555-13.04 0.81735-1.2751 6.1191-7.0693 11.782-12.876l10.296-10.558 9.6258 9.6794-9.8829 9.8924c-11.511 11.522-12.505 12.962-12.494 18.108 0.01156 5.2274 0.79442 6.3751 12.123 17.775 5.4151 5.4491 9.8455 10.092 9.8455 10.316s-2.0982 2.5069-4.6629 5.0718l-4.6632 4.6637zm-80.024 6.1679-4.6122-4.626 9.9903-10.117c11.296-11.438 11.88-12.273 12.117-17.334 0.11475-2.4442-0.047538-3.6119-0.77382-5.5673-0.84225-2.2675-1.7701-3.3353-11.105-12.783l-10.187-10.309 9.1875-9.7585 10.923 11.065c10.413 10.548 11.002 11.229 12.609 14.57 4.3892 9.1246 3.8136 19.078-1.5672 27.102-1.1857 1.7681-21.218 22.383-21.751 22.383-0.12034 0-2.2944-2.0808-4.8311-4.6249z" fill="#1e3255" stroke-width=".26366"/>
    <g transform="translate(34.263 24.808)">
        <g transform="matrix(1.3508 0 0 1.3508 -32.637 -32.637)" stroke="#1e3255">
            <circle cx="66.146" cy="66.146" r="25.312" fill="#fff" stroke-width="3.175"/>
            <path d="m52.416 54.311 0.22303 0.05305-0.22303-0.05305c-0.12288 0.51635-0.14654 0.8409-0.14287 1.7877 0.0023 0.62866 0.04226 1.3862 0.09211 1.6846 0.41367 2.4708 1.5155 5.0647 2.9867 7.0279 0.12495 0.16698 0.20488 0.28826 0.25335 0.38082 0.04824 0.0928 0.05627 0.1408 0.05627 0.16423 9.58e-4 0.2437 0.06547 0.45456 0.22992 0.69229 0.15619 0.22556 0.4054 0.47914 0.77314 0.81747 0.85812 0.78968 1.5803 1.2948 2.4366 1.6979 0.30526 0.14379 0.71089 0.29882 1.0701 0.4178 0.18008 0.05946 0.35143 0.11095 0.49521 0.14793 0.13529 0.03446 0.27034 0.06268 0.36498 0.06251 0.0248-2.34e-4 0.0418-4.6e-4 0.05489-8.68e-4 0.0053 0.02387 0.01125 0.05764 0.01677 0.10428 0.0356 0.29768 0.0379 0.90934 0.0425 2.1805 4.59e-4 0.12036 9.58e-4 0.24646 0.0014 0.37899 0.01126 2.8865 0.06018 3.7157 0.294 4.5835 0.89694 3.3271 3.8018 5.7946 7.3389 6.2508 4.6829 0.60386 8.9945-2.3904 9.8572-6.8742 0.09211-0.47867 0.12013-1.1937 0.14425-3.393l0.02822-2.6033 0.19272-0.04705c0.90728-0.22188 1.4753-0.4247 1.7557-0.61902 0.12817-0.0889 0.28803-0.24049 0.25404-0.45433-0.01603-0.10198-0.073-0.17847-0.1307-0.23175-0.05741-0.05304-0.12725-0.09463-0.19845-0.12794-0.27517-0.12932-0.73754-0.21499-1.2587-0.27058-0.5315-0.05651-1.1556-0.08403-1.7753-0.08386-0.61971 4.6e-4 -1.2399 0.0289-1.7631 0.08637-0.51152 0.05582-0.9654 0.14264-1.227 0.27586-0.06798 0.03472-0.1369 0.079-0.19133 0.13782-0.05651 0.06086-0.1052 0.14654-0.10612 0.2538-6.86e-4 0.1052 0.04479 0.19248 0.09854 0.25772 0.05287 0.06459 0.12334 0.12012 0.2012 0.16928 0.30205 0.19065 0.89442 0.39323 1.8366 0.61626l0.19018 0.04506 0.0078 2.6952 0.0087 2.8443-0.16331 0.57951c-0.94288 3.3473-4.363 5.4124-7.8839 4.7422-2.5498-0.48534-4.5245-2.2579-5.231-4.6864l-0.16998-0.5841-0.0342-3.1828-0.03264-3.0266 0.0026-6.86e-4c1.7526-0.37738 3.085-1.0965 4.4624-2.403 0.6645-0.63027 0.98216-1.0455 0.98399-1.5178 0 2.34e-4 0-0.0035 0.0017-0.01129 0.0017-0.0078 0.0044-0.01883 0.0089-0.03308 0.0094-0.02917 0.02553-0.06754 0.05009-0.11553 0.04983-0.09694 0.12794-0.22074 0.2382-0.37302 1.4866-2.055 2.4997-4.5132 2.9017-7.038 0.07509-0.4711 0.10015-1.1744 0.08499-1.8433-0.01519-0.66588-0.07102-1.3276-0.1679-1.7098-0.25496-1.0044-0.72146-1.7581-1.4305-2.2613-0.73111-0.51863-1.3701-0.75499-2.9616-1.1264-0.40472-0.09463-0.60133-0.14448-0.72399-0.19455-0.09946-0.04066-0.14195-0.07695-0.23153-0.17526-0.46536-0.51014-1.1241-0.60156-1.6506-0.39369-0.52805 0.20833-0.93323 0.72284-0.87833 1.4075 0.08083 1.0122 1.0984 1.5725 2.0339 1.1666l0.21453-0.09303 0.87972 0.20787c1.2346 0.29148 1.9129 0.55401 2.3098 0.95552 0.38542 0.38978 0.54 0.94793 0.59972 1.9547 0.13966 2.3578-0.82643 5.3991-2.4919 7.7822-0.20144 0.28826-0.30503 0.42676-0.38289 0.50325-0.03446 0.03377-0.05834 0.04939-0.07813 0.05929-0.02161 0.01077-0.04913 0.01997-0.10037 0.03142-0.27563 0.06128-0.5198 0.26024-0.98721 0.70699-0.738 0.70561-1.2215 1.0674-1.8414 1.3876-0.74259 0.38358-1.4765 0.53885-2.2126 0.47499-0.73754-0.06406-1.4921-0.34982-2.2719-0.87167-0.22326-0.1493-0.70492-0.54919-1.0642-0.88706-0.50142-0.47156-0.75454-0.67392-1.0382-0.74488-0.10038-0.02526-0.14011-0.04366-0.19868-0.09923-0.07695-0.07284-0.17617-0.20259-0.36934-0.47408-0.7628-1.0713-1.5173-2.5535-1.9276-3.786-0.43825-1.3161-0.5887-2.0771-0.64336-3.2315-0.07075-1.4953 0.1385-2.2962 0.61029-2.7797 0.38726-0.39737 0.92428-0.63418 2.4513-0.99341l0.70331-0.16561 0.21637 0.09187c1.2511 0.53128 2.5018-0.69505 1.8697-1.9262-0.46329-0.90223-1.6843-0.99709-2.384-0.25427-0.09348 0.09922-0.1431 0.13896-0.22119 0.1741-0.09303 0.04157-0.23107 0.07856-0.51336 0.14149-1.4762 0.32892-2.5153 0.7017-3.2448 1.2573-0.74167 0.56504-1.1423 1.3019-1.3807 2.3043z" fill="#1e3255" stroke-width="1.1525"/>
        </g>
    </g>
</svg>
